<svg width="463" height="516" viewBox="0 0 463 516" fill="none" xmlns="http://www.w3.org/2000/svg">
<path d="M132.337 503.46L143.769 503.459L149.206 459.363L132.333 459.364L132.337 503.46Z" fill="#FFB8B8"/>
<path d="M165.818 514.073L129.888 514.076L129.887 500.194L151.934 500.192C153.757 500.192 155.563 500.551 157.247 501.248C158.931 501.946 160.462 502.968 161.751 504.257C163.04 505.546 164.063 507.076 164.76 508.76C165.458 510.444 165.817 512.25 165.818 514.073Z" fill="#CCCCCC"/>
<path d="M70.715 503.46L82.148 503.459L87.584 459.363L70.711 459.364L70.715 503.46Z" fill="#FFB8B8"/>
<path d="M104.196 514.073L68.2666 514.076L68.2654 500.194L90.3132 500.192C93.9949 500.192 97.5259 501.654 100.13 504.257C102.733 506.86 104.196 510.391 104.196 514.073Z" fill="#CCCCCC"/>
<path d="M104.196 189.985C117.761 189.985 128.757 178.988 128.757 165.424C128.757 151.859 117.761 140.863 104.196 140.863C90.6317 140.863 79.6353 151.859 79.6353 165.424C79.6353 178.988 90.6317 189.985 104.196 189.985Z" fill="#FFB8B8"/>
<path d="M70.0452 342.243C70.6301 341.004 70.9361 339.651 70.9416 338.28C70.947 336.909 70.6519 335.554 70.0769 334.309C69.5018 333.065 68.661 331.962 67.6135 331.077C66.566 330.193 65.3373 329.549 64.0141 329.191L61.2583 307.941L47.9363 306.466L52.2495 336.421C51.7953 338.683 52.1869 341.034 53.3501 343.028C54.5134 345.021 56.3675 346.519 58.561 347.236C60.7546 347.954 63.1352 347.842 65.2518 346.922C67.3684 346.002 69.0739 344.337 70.0452 342.243Z" fill="#FFB8B8"/>
<path d="M51.4015 329.25C50.3226 329.249 49.2798 328.862 48.4629 328.157C47.646 327.452 47.1094 326.478 46.9508 325.41L40.3935 281.252C39.5695 275.693 40.236 270.016 42.3248 264.799L62.4561 214.559C63.2794 212.504 64.6301 210.703 66.3721 209.337C68.114 207.971 70.1854 207.089 72.3772 206.779C74.5691 206.469 76.8038 206.744 78.8559 207.574C80.9079 208.404 82.7047 209.761 84.0648 211.507C85.4703 213.307 86.3584 215.457 86.6333 217.724C86.9081 219.992 86.5595 222.291 85.6248 224.375L76.1343 245.603C65.4909 269.418 61.475 295.665 64.5106 321.572C64.6334 322.618 64.3856 323.674 63.8103 324.556C63.2351 325.437 62.3688 326.089 61.3623 326.398L52.7232 329.051C52.295 329.183 51.8495 329.25 51.4015 329.25Z" fill="#ECECEC"/>
<path d="M98.2163 189.984C94.5197 190.064 90.8482 189.36 87.4428 187.92C84.0374 186.48 80.9754 184.335 78.4579 181.627C75.9404 178.919 74.0245 175.709 72.836 172.208C71.6475 168.707 71.2133 164.994 71.5621 161.313C71.9108 157.632 73.0346 154.067 74.8595 150.851C76.6843 147.635 79.169 144.842 82.1503 142.655C85.1315 140.468 88.5418 138.937 92.1571 138.162C95.7723 137.387 99.5107 137.386 103.126 138.158C108.528 134.879 114.807 132.672 121.101 133.233C127.395 133.795 133.62 137.531 135.973 143.396C138.327 149.26 135.798 156.99 129.946 159.373C126.194 160.901 121.957 160.16 117.954 159.544C113.95 158.928 109.582 158.525 106.097 160.591C102.613 162.657 101.046 168.197 104.167 170.78C105.821 172.203 107.003 174.097 107.554 176.209C108.105 178.32 107.999 180.55 107.251 182.6C105.683 186.656 101.402 189.915 98.2163 189.984Z" fill="#848484"/>
<path d="M67.3873 494.576C66.7862 494.576 66.1912 494.456 65.6373 494.223C65.0833 493.989 64.5818 493.647 64.1623 493.216C63.7428 492.786 63.4138 492.276 63.1947 491.716C62.9756 491.156 62.8709 490.558 62.8867 489.957L67.256 324.141L67.7324 324.131L139.959 322.556L152.429 483.792C152.498 484.773 152.243 485.75 151.705 486.574C151.167 487.397 150.375 488.023 149.448 488.354L149.311 488.382L135.136 489.248C134.538 489.45 133.904 489.524 133.276 489.465C132.648 489.406 132.039 489.215 131.489 488.906C130.94 488.596 130.461 488.175 130.085 487.668C129.708 487.161 129.443 486.581 129.305 485.966L106.198 382.569C106.122 382.229 105.929 381.925 105.653 381.711C105.378 381.497 105.036 381.386 104.687 381.397C104.339 381.408 104.004 381.54 103.743 381.771C103.481 382.002 103.307 382.316 103.253 382.661L86.1814 490.05C86.0157 491.067 85.5075 491.997 84.741 492.686C83.9745 493.375 82.9956 493.781 81.9666 493.838L67.6144 494.57C67.5386 494.574 67.4629 494.576 67.3873 494.576Z" fill="#418392"/>
<path d="M88.6438 337.866C79.6559 337.866 71.8069 336.508 67.4728 332.634C64.6876 330.144 63.483 326.758 63.8928 322.57C65.433 306.827 62.764 272.322 60.2537 246.148C59.6788 240.009 60.3305 233.818 62.1709 227.933C64.0113 222.049 67.0036 216.589 70.9737 211.872C74.7938 207.302 79.4966 203.55 84.8006 200.84C90.1046 198.13 95.9008 196.518 101.842 196.101C110.111 195.512 129.473 194.139 135.492 209.554C144.533 232.71 140.111 243.329 135.835 253.599C132.202 262.324 128.445 271.345 133.05 288.287C135.594 297.656 138.675 306.87 142.277 315.885C144.771 322.28 146.022 325.489 144.867 327.585C143.955 329.239 141.681 329.959 137.804 330.71C136.537 330.955 134.864 331.311 132.871 331.735C122.738 333.888 104.024 337.866 88.6438 337.866Z" fill="#ECECEC"/>
<path d="M193.624 293.456C193.92 293.584 194.189 293.769 194.414 294C194.639 294.232 194.816 294.505 194.936 294.805C195.055 295.105 195.114 295.426 195.11 295.749C195.106 296.072 195.038 296.39 194.91 296.687L191.571 304.443L191.949 304.637L189.672 309.901L189.308 309.699L177.345 337.485C176.936 338.436 176.194 339.206 175.259 339.65C174.324 340.095 173.259 340.184 172.263 339.901L153.663 334.616C153.21 334.488 152.791 334.262 152.434 333.954C152.078 333.646 151.794 333.264 151.601 332.835C151.408 332.405 151.311 331.939 151.317 331.468C151.324 330.997 151.433 330.534 151.638 330.109L170.385 291.232C170.779 290.415 171.439 289.757 172.257 289.365C173.074 288.973 174.001 288.871 174.884 289.076L193.186 293.315C193.336 293.348 193.483 293.395 193.624 293.456Z" fill="#3F3D56"/>
<path d="M178.143 292.072L187.764 294.3C187.937 294.34 188.119 294.322 188.281 294.249C188.443 294.175 188.576 294.05 188.66 293.893C188.754 293.716 188.905 293.574 189.089 293.491C189.272 293.408 189.478 293.387 189.674 293.433L191.701 293.902C191.977 293.966 192.236 294.09 192.46 294.265C192.683 294.441 192.865 294.663 192.993 294.916C193.122 295.169 193.193 295.447 193.202 295.731C193.211 296.015 193.157 296.297 193.045 296.558L175.732 336.855C175.517 337.355 175.125 337.759 174.632 337.989C174.139 338.219 173.578 338.259 173.057 338.101L154.587 332.529C154.352 332.458 154.134 332.337 153.95 332.174C153.765 332.011 153.618 331.81 153.518 331.585C153.418 331.36 153.368 331.117 153.371 330.87C153.374 330.624 153.43 330.382 153.536 330.159L171.835 291.531C172.105 290.961 172.561 290.502 173.128 290.227C173.695 289.953 174.338 289.881 174.952 290.023L177.088 290.518C177.036 290.862 177.116 291.213 177.311 291.501C177.506 291.789 177.803 291.993 178.143 292.072Z" fill="#25BEC8"/>
<path d="M188.179 325.602C188.007 324.242 187.54 322.936 186.809 321.776C186.078 320.616 185.102 319.631 183.949 318.889C182.796 318.147 181.495 317.668 180.136 317.483C178.778 317.299 177.395 317.415 176.087 317.822L162.36 301.368L150.327 307.271L170.037 330.235C170.868 332.389 172.459 334.162 174.511 335.221C176.562 336.279 178.93 336.548 181.166 335.977C183.402 335.405 185.351 334.034 186.644 332.122C187.936 330.21 188.483 327.89 188.179 325.602Z" fill="#FFB8B8"/>
<path d="M162.435 323.353C162.401 323.353 162.366 323.353 162.332 323.352C161.684 323.338 161.047 323.183 160.464 322.9C159.881 322.616 159.367 322.209 158.956 321.708L133.497 290.684C128.061 284.056 124.481 276.104 123.124 267.639L115.285 218.648C115.021 216.996 115.089 215.308 115.485 213.682C115.881 212.056 116.597 210.526 117.592 209.18C118.586 207.835 119.84 206.701 121.278 205.845C122.716 204.99 124.31 204.43 125.967 204.198C127.624 203.966 129.311 204.067 130.929 204.495C132.546 204.923 134.062 205.669 135.388 206.69C136.714 207.711 137.823 208.986 138.65 210.441C139.477 211.895 140.006 213.5 140.205 215.161L143.321 241.146C146.203 265.149 155.512 287.929 170.266 307.08L172.047 309.391C172.689 310.225 173.019 311.258 172.979 312.31C172.939 313.362 172.531 314.366 171.826 315.149L165.779 321.865C165.357 322.333 164.841 322.708 164.265 322.965C163.689 323.221 163.066 323.353 162.435 323.353Z" fill="#ECECEC"/>
<path d="M253.136 84C244.83 84 236.709 81.5368 229.802 76.9218C222.896 72.3067 217.512 65.7472 214.333 58.0727C211.155 50.3982 210.323 41.9534 211.943 33.8062C213.564 25.659 217.564 18.1753 223.438 12.3015C229.312 6.42772 236.795 2.42762 244.943 0.807036C253.09 -0.813543 261.535 0.0182006 269.209 3.19708C276.884 6.37596 283.443 11.7592 288.058 18.6661C292.673 25.5729 295.136 33.6932 295.136 42C295.124 53.1352 290.695 63.8108 282.821 71.6846C274.947 79.5584 264.272 83.9874 253.136 84ZM253.136 2.00001C245.225 2.00001 237.492 4.34597 230.914 8.74123C224.336 13.1365 219.209 19.3836 216.181 26.6927C213.154 34.0017 212.362 42.0444 213.905 49.8036C215.448 57.5629 219.258 64.6902 224.852 70.2843C230.446 75.8784 237.574 79.688 245.333 81.2314C253.092 82.7748 261.135 81.9827 268.444 78.9552C275.753 75.9277 282 70.8008 286.395 64.2228C290.79 57.6449 293.136 49.9113 293.136 42C293.124 31.395 288.906 21.2278 281.407 13.729C273.909 6.23013 263.741 2.012 253.136 2.00001Z" fill="#CCCCCC"/>
<path fill-rule="evenodd" clip-rule="evenodd" d="M280.593 42.1648C280.592 36.918 279.087 31.7813 276.258 27.3629C273.428 22.9445 269.392 19.4293 264.627 17.2336C259.861 15.0378 254.567 14.2534 249.37 14.9733C244.172 15.6931 239.29 17.887 235.301 21.2953C231.312 24.7036 228.383 29.1834 226.861 34.2046C225.339 39.2258 225.287 44.5779 226.712 49.6275C228.138 54.677 230.98 59.2125 234.902 62.697C238.825 66.1814 243.664 68.469 248.846 69.2888V50.1038H241.873V42.1648H248.846V36.1146C248.846 29.2346 252.946 25.4312 259.217 25.4312C261.277 25.4599 263.331 25.6394 265.364 25.9681V32.7255H261.9C258.492 32.7255 257.425 34.8411 257.425 37.0155V42.166H265.039L263.823 50.105H257.425V69.2913C263.884 68.2683 269.766 64.9742 274.013 60.0016C278.26 55.029 280.593 48.7042 280.593 42.1648Z" fill="white"/>
<path d="M284.515 93.8311C293.763 93.8311 301.26 86.2516 301.26 76.9018C301.26 67.5519 293.763 59.9724 284.515 59.9724C275.266 59.9724 267.769 67.5519 267.769 76.9018C267.769 86.2516 275.266 93.8311 284.515 93.8311Z" fill="#3F3D56"/>
<path d="M287.864 85.9308H284.454V72.9398C283.196 74.1244 281.692 75.0163 280.049 75.552V72.424C281.104 72.0357 282.085 71.4694 282.948 70.7497C283.926 70.0173 284.672 69.0184 285.096 67.8728H287.864V85.9308Z" fill="#3F3D56"/>
<path d="M284.515 93.8311C293.763 93.8311 301.26 86.2516 301.26 76.9018C301.26 67.5519 293.763 59.9724 284.515 59.9724C275.266 59.9724 267.769 67.5519 267.769 76.9018C267.769 86.2516 275.266 93.8311 284.515 93.8311Z" fill="#25BEC8"/>
<path d="M287.864 85.9308H284.454V72.9398C283.196 74.1244 281.692 75.0163 280.049 75.552V72.424C281.104 72.0357 282.085 71.4694 282.948 70.7497C283.926 70.0173 284.672 69.0184 285.096 67.8728H287.864V85.9308Z" fill="white"/>
<path d="M415.136 123C406.83 123 398.709 120.537 391.802 115.922C384.896 111.307 379.512 104.747 376.333 97.0727C373.155 89.3982 372.323 80.9534 373.943 72.8062C375.564 64.659 379.564 57.1753 385.438 51.3015C391.312 45.4277 398.795 41.4276 406.943 39.807C415.09 38.1865 423.535 39.0182 431.209 42.1971C438.884 45.376 445.443 50.7592 450.058 57.6661C454.673 64.5729 457.136 72.6932 457.136 81C457.124 92.1353 452.695 102.811 444.821 110.685C436.947 118.558 426.272 122.987 415.136 123ZM415.136 41C407.225 41 399.492 43.346 392.914 47.7412C386.336 52.1365 381.209 58.3836 378.181 65.6927C375.154 73.0017 374.362 81.0444 375.905 88.8036C377.448 96.5629 381.258 103.69 386.852 109.284C392.446 114.878 399.574 118.688 407.333 120.231C415.092 121.775 423.135 120.983 430.444 117.955C437.753 114.928 444 109.801 448.395 103.223C452.79 96.6449 455.136 88.9113 455.136 81C455.124 70.395 450.906 60.2278 443.407 52.729C435.909 45.2301 425.741 41.012 415.136 41Z" fill="#CCCCCC"/>
<path d="M439.136 69.4978L444.136 68.4978C444.136 68.4978 439.936 73.1978 439.136 73.4978C439.062 74.4964 439.062 75.4992 439.136 76.4978C429.536 117.698 394.136 99.4978 394.136 99.4978C407.036 99.7978 408.136 94.4978 408.136 94.4978C400.636 93.3978 399.136 88.4978 399.136 88.4978C399.809 88.8528 400.59 88.947 401.328 88.7625C402.066 88.578 402.71 88.1277 403.136 87.4978C395.036 85.3978 396.136 77.4978 396.136 77.4978C397.58 78.5402 399.267 79.1944 401.036 79.3978C400.136 78.2978 392.536 69.1978 397.136 64.4978C397.136 64.4978 402.736 74.4978 417.436 75.3978L418.436 75.1978C418.266 74.4776 418.199 73.7369 418.236 72.9978C418.236 70.213 419.343 67.5423 421.312 65.5732C423.281 63.604 425.952 62.4978 428.736 62.4978C435.736 62.4978 437.236 66.4978 437.236 66.4978L442.236 63.4978C442.136 63.4978 441.636 68.4978 439.136 69.4978Z" fill="white"/>
<path d="M445.749 136.176C455.099 136.176 462.678 128.597 462.678 119.247C462.678 109.897 455.099 102.318 445.749 102.318C436.399 102.318 428.82 109.897 428.82 119.247C428.82 128.597 436.399 136.176 445.749 136.176Z" fill="#3F3D56"/>
<path d="M443.738 122.014C443.68 122.923 443.936 123.824 444.464 124.566C444.652 124.834 444.899 125.056 445.188 125.212C445.476 125.368 445.796 125.455 446.124 125.465C446.414 125.468 446.7 125.403 446.961 125.275C447.221 125.147 447.448 124.96 447.623 124.729C448.085 124.013 448.296 123.165 448.222 122.316C448.294 121.425 448.067 120.536 447.576 119.789C447.39 119.543 447.151 119.343 446.875 119.204C446.6 119.065 446.297 118.991 445.989 118.988C445.68 118.984 445.375 119.051 445.097 119.184C444.819 119.316 444.574 119.511 444.383 119.752C443.908 120.407 443.68 121.208 443.738 122.014ZM451.081 114.62L447.945 114.983C447.92 114.431 447.709 113.904 447.345 113.488C447.179 113.326 446.983 113.2 446.767 113.117C446.551 113.034 446.32 112.996 446.089 113.005C445.742 113.01 445.403 113.101 445.1 113.269C444.797 113.437 444.541 113.678 444.354 113.97C443.728 115.215 443.421 116.595 443.46 117.988C443.809 117.52 444.263 117.14 444.786 116.88C445.309 116.62 445.885 116.487 446.469 116.49C447.132 116.488 447.787 116.632 448.387 116.911C448.988 117.191 449.52 117.6 449.944 118.108C450.938 119.266 451.455 120.757 451.391 122.281C451.468 123.875 450.923 125.437 449.87 126.636C449.334 127.19 448.686 127.623 447.968 127.904C447.251 128.186 446.481 128.31 445.711 128.268C444.942 128.226 444.19 128.02 443.508 127.662C442.825 127.304 442.227 126.804 441.755 126.195C440.656 124.808 440.106 122.535 440.106 119.374C440.106 116.133 440.679 113.796 441.824 112.365C442.345 111.68 443.021 111.129 443.796 110.755C444.572 110.382 445.425 110.198 446.285 110.218C447.452 110.176 448.591 110.579 449.472 111.346C450.374 112.216 450.943 113.374 451.081 114.62Z" fill="#3F3D56"/>
<path d="M445.749 136.176C455.099 136.176 462.678 128.597 462.678 119.247C462.678 109.897 455.099 102.318 445.749 102.318C436.399 102.318 428.82 109.897 428.82 119.247C428.82 128.597 436.399 136.176 445.749 136.176Z" fill="#25BEC8"/>
<path d="M443.738 122.014C443.68 122.923 443.936 123.824 444.464 124.566C444.652 124.834 444.899 125.056 445.188 125.212C445.476 125.368 445.796 125.455 446.124 125.465C446.414 125.468 446.7 125.403 446.961 125.275C447.221 125.147 447.448 124.96 447.623 124.729C448.085 124.013 448.296 123.165 448.222 122.316C448.294 121.425 448.067 120.536 447.576 119.789C447.39 119.543 447.151 119.343 446.875 119.204C446.6 119.065 446.297 118.991 445.989 118.988C445.68 118.984 445.375 119.051 445.097 119.184C444.819 119.316 444.574 119.511 444.383 119.752C443.908 120.407 443.68 121.208 443.738 122.014ZM451.081 114.62L447.945 114.983C447.92 114.431 447.709 113.904 447.345 113.488C447.179 113.326 446.983 113.2 446.767 113.117C446.551 113.034 446.32 112.996 446.089 113.005C445.742 113.01 445.403 113.101 445.1 113.269C444.797 113.437 444.541 113.678 444.354 113.97C443.728 115.215 443.421 116.595 443.46 117.988C443.809 117.52 444.263 117.14 444.786 116.88C445.309 116.62 445.885 116.487 446.469 116.49C447.132 116.488 447.787 116.632 448.387 116.911C448.988 117.191 449.52 117.6 449.944 118.108C450.938 119.266 451.455 120.757 451.391 122.281C451.468 123.875 450.923 125.437 449.87 126.636C449.334 127.19 448.686 127.623 447.968 127.904C447.251 128.186 446.481 128.31 445.711 128.268C444.942 128.226 444.19 128.02 443.508 127.662C442.825 127.304 442.227 126.804 441.755 126.195C440.656 124.808 440.106 122.535 440.106 119.374C440.106 116.133 440.679 113.796 441.824 112.365C442.345 111.68 443.021 111.129 443.796 110.755C444.572 110.382 445.425 110.198 446.285 110.218C447.452 110.176 448.591 110.579 449.472 111.346C450.374 112.216 450.943 113.374 451.081 114.62Z" fill="white"/>
<path d="M340.136 256C331.83 256 323.709 253.537 316.802 248.922C309.896 244.307 304.512 237.747 301.333 230.073C298.155 222.398 297.323 213.953 298.943 205.806C300.564 197.659 304.564 190.175 310.438 184.302C316.312 178.428 323.795 174.428 331.943 172.807C340.09 171.186 348.535 172.018 356.209 175.197C363.884 178.376 370.443 183.759 375.058 190.666C379.673 197.573 382.136 205.693 382.136 214C382.124 225.135 377.695 235.811 369.821 243.685C361.947 251.558 351.272 255.987 340.136 256ZM340.136 174C332.225 174 324.492 176.346 317.914 180.741C311.336 185.136 306.209 191.384 303.181 198.693C300.154 206.002 299.362 214.044 300.905 221.804C302.448 229.563 306.258 236.69 311.852 242.284C317.446 247.878 324.574 251.688 332.333 253.231C340.092 254.775 348.135 253.983 355.444 250.955C362.753 247.928 369 242.801 373.395 236.223C377.79 229.645 380.136 221.911 380.136 214C380.124 203.395 375.906 193.228 368.407 185.729C360.909 178.23 350.741 174.012 340.136 174Z" fill="#CCCCCC"/>
<path d="M358.806 190.998L321.743 191.002C321.267 190.979 320.791 191.05 320.342 191.211C319.893 191.373 319.48 191.621 319.128 191.943C318.775 192.264 318.489 192.652 318.287 193.084C318.085 193.516 317.97 193.984 317.949 194.461L317.952 231.606C317.978 232.605 318.386 233.557 319.092 234.265C319.798 234.972 320.748 235.383 321.747 235.411L358.8 235.408C359.775 235.369 360.695 234.949 361.362 234.236C362.029 233.524 362.388 232.577 362.362 231.602L362.359 194.457C362.366 193.992 362.279 193.531 362.102 193.102C361.925 192.673 361.662 192.284 361.329 191.96C360.997 191.636 360.601 191.384 360.167 191.219C359.733 191.053 359.27 190.978 358.806 190.998ZM331.718 228.018L325.356 228.019L325.354 208.238L331.716 208.237L331.718 228.018ZM328.755 205.23H328.709C327.794 205.224 326.918 204.855 326.274 204.205C325.63 203.554 325.27 202.675 325.273 201.759C325.276 200.844 325.642 199.967 326.29 199.321C326.939 198.674 327.817 198.311 328.732 198.311C329.648 198.311 330.526 198.674 331.174 199.321C331.823 199.967 332.189 200.844 332.192 201.759C332.195 202.675 331.835 203.554 331.19 204.205C330.546 204.855 329.67 205.224 328.755 205.23ZM354.97 228.016L348.608 228.017L348.607 217.201C348.606 214.61 347.68 212.839 345.379 212.839C344.659 212.845 343.958 213.074 343.374 213.495C342.79 213.916 342.35 214.507 342.116 215.188C341.947 215.691 341.873 216.221 341.897 216.75L341.898 228.017L335.536 228.018L335.534 208.237L341.896 208.236L341.896 210.989C342.475 209.987 343.314 209.16 344.323 208.594C345.333 208.028 346.476 207.744 347.633 207.773C351.81 207.773 354.969 210.525 354.97 216.46V228.016Z" fill="white"/>
<path d="M374.505 266.973C383.855 266.973 391.435 259.394 391.435 250.044C391.435 240.694 383.855 233.115 374.505 233.115C365.155 233.115 357.576 240.694 357.576 250.044C357.576 259.394 365.155 266.973 374.505 266.973Z" fill="#3F3D56"/>
<path d="M372.409 245.813C372.392 246.1 372.432 246.387 372.528 246.658C372.624 246.929 372.772 247.178 372.966 247.391C373.16 247.583 373.392 247.732 373.647 247.829C373.901 247.927 374.174 247.97 374.446 247.958C374.722 247.971 374.997 247.927 375.255 247.828C375.513 247.73 375.748 247.579 375.944 247.385C376.139 247.172 376.289 246.922 376.386 246.65C376.482 246.377 376.523 246.089 376.506 245.8C376.52 245.522 376.477 245.244 376.382 244.982C376.287 244.72 376.14 244.48 375.951 244.275C375.759 244.083 375.529 243.933 375.276 243.834C375.024 243.736 374.753 243.691 374.482 243.703C374.204 243.689 373.926 243.734 373.666 243.833C373.406 243.933 373.169 244.085 372.972 244.281C372.781 244.486 372.633 244.727 372.536 244.99C372.44 245.253 372.397 245.533 372.409 245.813ZM372.105 253.384C372.058 254.172 372.306 254.95 372.802 255.565C373.016 255.815 373.283 256.016 373.583 256.151C373.884 256.287 374.211 256.354 374.54 256.349C374.86 256.356 375.176 256.292 375.468 256.161C375.759 256.031 376.018 255.837 376.226 255.595C376.709 254.977 376.946 254.202 376.893 253.419C376.929 252.692 376.686 251.98 376.215 251.425C376.001 251.181 375.736 250.987 375.438 250.856C375.141 250.726 374.818 250.662 374.493 250.67C374.146 250.647 373.798 250.714 373.483 250.864C373.168 251.014 372.897 251.242 372.696 251.527C372.311 252.07 372.105 252.718 372.105 253.384ZM371.731 249.224C370.966 248.926 370.316 248.392 369.875 247.699C369.49 247.057 369.289 246.321 369.296 245.572C369.278 244.964 369.388 244.359 369.619 243.796C369.849 243.233 370.196 242.725 370.636 242.304C371.728 241.468 373.065 241.015 374.441 241.015C375.817 241.015 377.154 241.468 378.246 242.304C378.689 242.723 379.039 243.231 379.272 243.794C379.505 244.357 379.616 244.963 379.598 245.572C379.615 246.348 379.398 247.11 378.976 247.761C378.554 248.412 377.947 248.922 377.233 249.224C378.112 249.551 378.866 250.146 379.389 250.924C379.912 251.703 380.178 252.626 380.149 253.563C380.189 254.301 380.073 255.039 379.808 255.728C379.543 256.418 379.135 257.043 378.611 257.564C378.087 258.084 377.458 258.488 376.767 258.748C376.075 259.008 375.336 259.119 374.599 259.073C373.191 259.123 371.81 258.675 370.7 257.808C370.095 257.315 369.614 256.688 369.295 255.976C368.976 255.264 368.828 254.487 368.862 253.707C368.854 252.784 369.092 251.876 369.553 251.076C370.057 250.237 370.822 249.587 371.731 249.224Z" fill="#3F3D56"/>
<path d="M374.505 266.973C383.855 266.973 391.435 259.394 391.435 250.044C391.435 240.694 383.855 233.115 374.505 233.115C365.155 233.115 357.576 240.694 357.576 250.044C357.576 259.394 365.155 266.973 374.505 266.973Z" fill="#25BEC8"/>
<path d="M372.409 245.813C372.392 246.1 372.432 246.387 372.528 246.658C372.624 246.929 372.772 247.178 372.966 247.391C373.16 247.583 373.392 247.732 373.647 247.829C373.901 247.927 374.174 247.97 374.446 247.958C374.722 247.971 374.997 247.927 375.255 247.828C375.513 247.73 375.748 247.579 375.944 247.385C376.139 247.172 376.289 246.922 376.386 246.65C376.482 246.377 376.523 246.089 376.506 245.8C376.52 245.522 376.477 245.244 376.382 244.982C376.287 244.72 376.14 244.48 375.951 244.275C375.759 244.083 375.529 243.933 375.276 243.834C375.024 243.736 374.753 243.691 374.482 243.703C374.204 243.689 373.926 243.734 373.666 243.833C373.406 243.933 373.169 244.085 372.972 244.281C372.781 244.486 372.633 244.727 372.536 244.99C372.44 245.253 372.397 245.533 372.409 245.813ZM372.105 253.384C372.058 254.172 372.306 254.95 372.802 255.565C373.016 255.815 373.283 256.016 373.583 256.151C373.884 256.287 374.211 256.354 374.54 256.349C374.86 256.356 375.176 256.292 375.468 256.161C375.759 256.031 376.018 255.837 376.226 255.595C376.709 254.977 376.946 254.202 376.893 253.419C376.929 252.692 376.686 251.98 376.215 251.425C376.001 251.181 375.736 250.987 375.438 250.856C375.141 250.726 374.818 250.662 374.493 250.67C374.146 250.647 373.798 250.714 373.483 250.864C373.168 251.014 372.897 251.242 372.696 251.527C372.311 252.07 372.105 252.718 372.105 253.384ZM371.731 249.224C370.966 248.926 370.316 248.392 369.875 247.699C369.49 247.057 369.289 246.321 369.296 245.572C369.278 244.964 369.388 244.359 369.619 243.796C369.849 243.233 370.196 242.725 370.636 242.304C371.728 241.468 373.065 241.015 374.441 241.015C375.817 241.015 377.154 241.468 378.246 242.304C378.689 242.723 379.039 243.231 379.272 243.794C379.505 244.357 379.616 244.963 379.598 245.572C379.615 246.348 379.398 247.11 378.976 247.761C378.554 248.412 377.947 248.922 377.233 249.224C378.112 249.551 378.866 250.146 379.389 250.924C379.912 251.703 380.178 252.626 380.149 253.563C380.189 254.301 380.073 255.039 379.808 255.728C379.543 256.418 379.135 257.043 378.611 257.564C378.087 258.084 377.458 258.488 376.767 258.748C376.075 259.008 375.336 259.119 374.599 259.073C373.191 259.123 371.81 258.675 370.7 257.808C370.095 257.315 369.614 256.688 369.295 255.976C368.976 255.264 368.828 254.487 368.862 253.707C368.854 252.784 369.092 251.876 369.553 251.076C370.057 250.237 370.822 249.587 371.731 249.224Z" fill="white"/>
<path d="M232 515.972H1.00001C0.734791 515.972 0.480421 515.867 0.292885 515.68C0.105348 515.492 7.62939e-06 515.238 7.62939e-06 514.972C7.62939e-06 514.707 0.105348 514.453 0.292885 514.265C0.480421 514.078 0.734791 513.972 1.00001 513.972H232C232.265 513.972 232.52 514.078 232.707 514.265C232.895 514.453 233 514.707 233 514.972C233 515.238 232.895 515.492 232.707 515.68C232.52 515.867 232.265 515.972 232 515.972Z" fill="#CCCCCC"/>
</svg>
