<svg width="530" height="393" viewBox="0 0 530 393" fill="none" xmlns="http://www.w3.org/2000/svg">
<path d="M457.136 293.016C452.336 293.016 448.688 291.768 446.192 289.272C443.696 286.584 442.448 282.936 442.448 278.328V163.128C442.448 158.328 443.696 154.68 446.192 152.184C448.688 149.688 452.144 148.44 456.56 148.44C461.168 148.44 464.624 149.688 466.928 152.184C469.424 154.68 470.672 158.328 470.672 163.128V184.152H467.792C470.864 172.632 476.528 163.896 484.784 157.944C493.04 151.992 503.6 148.536 516.464 147.576C519.92 147.384 522.608 148.248 524.528 150.168C526.64 152.088 527.792 155.064 527.984 159.096C528.368 163.128 527.504 166.392 525.392 168.888C523.28 171.192 520.016 172.536 515.6 172.92L510.128 173.496C497.648 174.648 488.144 178.584 481.616 185.304C475.088 192.024 471.824 201.24 471.824 212.952V278.328C471.824 282.936 470.576 286.584 468.08 289.272C465.776 291.768 462.128 293.016 457.136 293.016Z" fill="#252328"/>
<path d="M349.4 293.592C334.04 293.592 320.792 290.712 309.656 284.952C298.712 279 290.168 270.648 284.024 259.896C278.072 248.952 275.096 235.992 275.096 221.016C275.096 206.424 278.072 193.656 284.024 182.712C289.976 171.768 298.136 163.224 308.504 157.08C318.872 150.936 330.68 147.864 343.928 147.864C353.72 147.864 362.456 149.496 370.136 152.76C377.816 155.832 384.344 160.44 389.72 166.584C395.288 172.536 399.416 179.832 402.104 188.472C404.984 197.112 406.424 206.808 406.424 217.56C406.424 220.824 405.464 223.32 403.544 225.048C401.624 226.584 398.744 227.352 394.904 227.352H298.136V209.496H386.84L381.944 213.528C381.944 203.928 380.504 195.768 377.624 189.048C374.936 182.328 370.808 177.24 365.24 173.784C359.864 170.136 353.144 168.312 345.08 168.312C336.056 168.312 328.376 170.424 322.04 174.648C315.896 178.872 311.192 184.728 307.928 192.216C304.664 199.704 303.032 208.44 303.032 218.424V220.152C303.032 237.048 306.968 249.816 314.84 258.456C322.904 266.904 334.52 271.128 349.688 271.128C355.448 271.128 361.496 270.36 367.832 268.824C374.36 267.288 380.504 264.696 386.264 261.048C389.528 259.128 392.408 258.264 394.904 258.456C397.592 258.648 399.704 259.512 401.24 261.048C402.968 262.584 404.024 264.504 404.408 266.808C404.792 269.112 404.408 271.512 403.256 274.008C402.104 276.312 400.088 278.424 397.208 280.344C390.68 284.76 383.096 288.12 374.456 290.424C365.816 292.536 357.464 293.592 349.4 293.592Z" fill="#252328"/>
<path d="M38.592 293.016C33.792 293.016 30.048 291.672 27.36 288.984C24.864 286.296 23.616 282.552 23.616 277.752V100.92C23.616 95.928 24.864 92.184 27.36 89.688C30.048 87.192 33.792 85.944 38.592 85.944C43.392 85.944 47.04 87.192 49.536 89.688C52.224 92.184 53.568 95.928 53.568 100.92V179.256H54.144L142.56 93.72C145.44 91.032 148.128 89.112 150.624 87.96C153.312 86.616 156.288 85.944 159.552 85.944C163.968 85.944 167.136 87.096 169.056 89.4C171.168 91.512 172.032 94.104 171.648 97.176C171.264 100.248 169.632 103.224 166.752 106.104L74.88 193.656L75.456 178.968L171.072 271.128C174.528 274.392 176.352 277.752 176.544 281.208C176.736 284.664 175.68 287.544 173.376 289.848C171.072 291.96 167.808 293.016 163.584 293.016C159.744 293.016 156.672 292.248 154.368 290.712C152.064 289.176 149.376 286.968 146.304 284.088L54.144 196.248H53.568V277.752C53.568 282.552 52.32 286.296 49.824 288.984C47.328 291.672 43.584 293.016 38.592 293.016Z" fill="#252328"/>
<path d="M230.536 100.888H246.016L260.632 116.8L246.016 132.712H230.536L245.224 116.8L230.536 100.888Z" fill="#25BEC8"/>
<path d="M204.72 132.712L190.104 116.8L204.72 100.888H220.2L205.512 116.8L220.2 132.712H204.72Z" fill="#25BEC8"/>
<path d="M225.224 123.576C223.064 123.576 221.288 122.952 219.896 121.704C218.552 120.408 217.88 118.824 217.88 116.952C217.88 115.032 218.552 113.424 219.896 112.128C221.288 110.832 223.064 110.184 225.224 110.184C227.336 110.184 229.064 110.832 230.408 112.128C231.8 113.424 232.496 115.032 232.496 116.952C232.496 118.824 231.8 120.408 230.408 121.704C229.064 122.952 227.336 123.576 225.224 123.576Z" fill="#252328"/>
<path d="M204 132H246V276C246 284.284 239.284 291 231 291H219C210.716 291 204 284.284 204 276V132Z" fill="#25BEC8"/>
</svg>
