<svg width="539" height="432" viewBox="0 0 539 432" fill="none" xmlns="http://www.w3.org/2000/svg">
<path d="M482.192 182.216C487.376 173.768 494.096 167.144 502.352 162.344C510.8 157.544 520.4 155.144 531.152 155.144V197.48H520.496C507.824 197.48 498.224 200.456 491.696 206.408C485.36 212.36 482.192 222.728 482.192 237.512V317H441.872V157.448H482.192V182.216Z" fill="white"/>
<path d="M419.192 233.768C419.192 239.528 418.808 244.712 418.04 249.32H301.4C302.36 260.84 306.392 269.864 313.496 276.392C320.6 282.92 329.336 286.184 339.704 286.184C354.68 286.184 365.336 279.752 371.672 266.888H415.16C410.552 282.248 401.72 294.92 388.664 304.904C375.608 314.696 359.576 319.592 340.568 319.592C325.208 319.592 311.384 316.232 299.096 309.512C287 302.6 277.496 292.904 270.584 280.424C263.864 267.944 260.504 253.544 260.504 237.224C260.504 220.712 263.864 206.216 270.584 193.736C277.304 181.256 286.712 171.656 298.808 164.936C310.904 158.216 324.824 154.856 340.568 154.856C355.736 154.856 369.272 158.12 381.176 164.648C393.272 171.176 402.584 180.488 409.112 192.584C415.832 204.488 419.192 218.216 419.192 233.768ZM377.432 222.248C377.24 211.88 373.496 203.624 366.2 197.48C358.904 191.144 349.976 187.976 339.416 187.976C329.432 187.976 320.984 191.048 314.072 197.192C307.352 203.144 303.224 211.496 301.688 222.248H377.432Z" fill="white"/>
<path d="M133.344 317L60.192 227.432V317H19.872V115.976H60.192V206.12L133.344 115.976H182.016L99.072 215.624L184.32 317H133.344Z" fill="white"/>
<path d="M227.536 126.888H243.016L257.632 142.8L243.016 158.712H227.536L242.224 142.8L227.536 126.888Z" fill="#25BEC8"/>
<path d="M201.72 158.712L187.104 142.8L201.72 126.888H217.2L202.512 142.8L217.2 158.712H201.72Z" fill="#25BEC8"/>
<path d="M222.224 149.576C220.064 149.576 218.288 148.952 216.896 147.704C215.552 146.408 214.88 144.824 214.88 142.952C214.88 141.032 215.552 139.424 216.896 138.128C218.288 136.832 220.064 136.184 222.224 136.184C224.336 136.184 226.064 136.832 227.408 138.128C228.8 139.424 229.496 141.032 229.496 142.952C229.496 144.824 228.8 146.408 227.408 147.704C226.064 148.952 224.336 149.576 222.224 149.576Z" fill="white"/>
<rect x="201" y="158" width="42" height="159" fill="#25BEC8"/>
<rect x="295" y="349" width="185" height="22" rx="11" fill="#F26707"/>
<rect x="201" y="385" width="279" height="22" rx="11" fill="#F26707"/>
</svg>
